<svg xmlns="http://www.w3.org/2000/svg" xmlns:xlink="http://www.w3.org/1999/xlink" viewBox="0 0 528.38 335.62"><defs><style>.cls-1{fill:url(#radial-gradient);}.cls-2{isolation:isolate;}.cls-3{clip-path:url(#clip-path);}.cls-10,.cls-11,.cls-12,.cls-13,.cls-14,.cls-15,.cls-16,.cls-17,.cls-18,.cls-19,.cls-20,.cls-21,.cls-22,.cls-23,.cls-24,.cls-25,.cls-26,.cls-27,.cls-28,.cls-29,.cls-30,.cls-31,.cls-32,.cls-33,.cls-34,.cls-35,.cls-36,.cls-37,.cls-38,.cls-39,.cls-4,.cls-40,.cls-41,.cls-42,.cls-43,.cls-44,.cls-45,.cls-46,.cls-47,.cls-48,.cls-49,.cls-5,.cls-50,.cls-51,.cls-52,.cls-53,.cls-54,.cls-55,.cls-56,.cls-57,.cls-58,.cls-59,.cls-6,.cls-60,.cls-61,.cls-62,.cls-63,.cls-64,.cls-65,.cls-66,.cls-67,.cls-68,.cls-7,.cls-8,.cls-9{fill:#7d7d7d;}.cls-4{opacity:0.48;}.cls-10,.cls-11,.cls-12,.cls-13,.cls-14,.cls-15,.cls-16,.cls-17,.cls-18,.cls-19,.cls-20,.cls-21,.cls-22,.cls-23,.cls-24,.cls-25,.cls-26,.cls-27,.cls-28,.cls-29,.cls-30,.cls-31,.cls-32,.cls-33,.cls-34,.cls-35,.cls-36,.cls-37,.cls-38,.cls-39,.cls-4,.cls-40,.cls-41,.cls-42,.cls-43,.cls-44,.cls-45,.cls-46,.cls-47,.cls-48,.cls-49,.cls-5,.cls-50,.cls-51,.cls-52,.cls-53,.cls-54,.cls-55,.cls-56,.cls-57,.cls-58,.cls-59,.cls-6,.cls-60,.cls-61,.cls-62,.cls-63,.cls-64,.cls-65,.cls-66,.cls-67,.cls-68,.cls-69,.cls-7,.cls-70,.cls-8,.cls-9{mix-blend-mode:color-burn;}.cls-5{opacity:0.38;}.cls-6{opacity:0.02;}.cls-7{opacity:0.42;}.cls-8{opacity:0.31;}.cls-9{opacity:0.33;}.cls-10{opacity:0.56;}.cls-11{opacity:0.29;}.cls-12{opacity:0.23;}.cls-13{opacity:0.59;}.cls-14{opacity:0.06;}.cls-15{opacity:0.54;}.cls-16{opacity:0.69;}.cls-17{opacity:0.41;}.cls-18{opacity:0.5;}.cls-19{opacity:0.65;}.cls-20{opacity:0.13;}.cls-21{opacity:0.26;}.cls-22{opacity:0.6;}.cls-23{opacity:0.67;}.cls-24{opacity:0.34;}.cls-25{opacity:0.46;}.cls-26{opacity:0.2;}.cls-27{opacity:0.61;}.cls-28{opacity:0.24;}.cls-29{opacity:0.07;}.cls-30{opacity:0.1;}.cls-31{opacity:0.19;}.cls-32{opacity:0.43;}.cls-33{opacity:0.35;}.cls-34{opacity:0.52;}.cls-35{opacity:0.3;}.cls-36{opacity:0.28;}.cls-37{opacity:0.68;}.cls-38{opacity:0.03;}.cls-39{opacity:0.14;}.cls-40{opacity:0.63;}.cls-41{opacity:0.44;}.cls-42{opacity:0.17;}.cls-43{opacity:0.47;}.cls-44{opacity:0.05;}.cls-45{opacity:0.39;}.cls-46{opacity:0;}.cls-47{opacity:0.49;}.cls-48{opacity:0.66;}.cls-49{opacity:0.11;}.cls-50{opacity:0.22;}.cls-51{opacity:0.36;}.cls-52{opacity:0.53;}.cls-53{opacity:0.15;}.cls-54{opacity:0.55;}.cls-55{opacity:0.01;}.cls-56{opacity:0.04;}.cls-57{opacity:0.08;}.cls-58{opacity:0.16;}.cls-59{opacity:0.58;}.cls-60{opacity:0.62;}.cls-61{opacity:0.32;}.cls-62{opacity:0.4;}.cls-63{opacity:0.21;}.cls-64{opacity:0.12;}.cls-65{opacity:0.25;}.cls-66{opacity:0.57;}.cls-67{opacity:0.7;}.cls-68{opacity:0.45;}.cls-69{fill:url(#radial-gradient-3);}.cls-70{fill:url(#radial-gradient-4);}</style><radialGradient id="radial-gradient" cx="-35.16" cy="289.3" r="598.68" gradientUnits="userSpaceOnUse"><stop offset="0.13" stop-color="#94c8f2"/><stop offset="0.21" stop-color="#a8d2f4"/><stop offset="0.34" stop-color="#c7e2f8"/><stop offset="0.49" stop-color="#e0effb"/><stop offset="0.64" stop-color="#f1f8fd"/><stop offset="0.81" stop-color="#fcfdff"/><stop offset="1" stop-color="#fff"/></radialGradient><clipPath id="clip-path" transform="translate(24.38 24.38)"><rect class="cls-1" width="504" height="288"/></clipPath><radialGradient id="radial-gradient-3" cx="69.38" cy="166.77" r="54.25" gradientTransform="translate(215.75 60.94) rotate(76.72)" gradientUnits="userSpaceOnUse"><stop offset="0.13" stop-color="#b5b5b5"/><stop offset="0.13" stop-color="#b5b5b5"/><stop offset="0.26" stop-color="#d0d0d0"/><stop offset="0.39" stop-color="#e5e5e5"/><stop offset="0.54" stop-color="#f4f4f4"/><stop offset="0.72" stop-color="#fcfcfc"/><stop offset="1" stop-color="#fff"/></radialGradient><radialGradient id="radial-gradient-4" cx="67.51" cy="214.83" r="26.98" gradientTransform="translate(261.08 99.77) rotate(76.72)" xlink:href="#radial-gradient-3"/></defs><g class="cls-2"><g id="Layer_1" data-name="Layer 1"><rect class="cls-1" x="24.38" y="24.38" width="504" height="288"/><g class="cls-3"><polygon class="cls-4" points="50.33 0 32.44 23.55 44.58 0 43.67 0 29.6 27.29 30.28 27.72 51.34 0 50.33 0"/><polygon class="cls-5" points="0 133.27 0 134.09 59.38 121.38 59.98 121.25 13.17 57.48 12.52 57.95 58.6 120.73 0 133.27"/><polygon class="cls-5" points="0 82.17 11.45 58.06 10.72 57.71 0 80.29 0 82.17"/><path class="cls-6" d="M-15,32.81A1.81,1.81,0,0,1-12.56,32a1.81,1.81,0,0,1,.86,2.42,1.82,1.82,0,0,1-2.42.86A1.82,1.82,0,0,1-15,32.81Z" transform="translate(24.38 24.38)"/><path class="cls-7" d="M-10,32.34A1.81,1.81,0,0,0-12.56,32a1.82,1.82,0,0,0-.39,2.54,1.83,1.83,0,0,0,2.54.39A1.81,1.81,0,0,0-10,32.34Z" transform="translate(24.38 24.38)"/><polygon class="cls-8" points="0 134.09 58.55 121.56 45.57 147.55 0 142.36 0 143.17 46.03 148.41 60.02 120.42 0 133.27 0 134.09"/><polygon class="cls-9" points="96.34 279.39 144.92 226.46 163.62 247.37 163.01 247.9 144.91 227.66 99.53 277.1 162.72 249.25 163.05 249.99 96.34 279.39"/><path class="cls-10" d="M137.69,223.61a1.82,1.82,0,1,1-.93,2.4A1.83,1.83,0,0,1,137.69,223.61Z" transform="translate(24.38 24.38)"/><path class="cls-11" d="M137.52,224.4a1.82,1.82,0,1,0,.14-2.56A1.82,1.82,0,0,0,137.52,224.4Z" transform="translate(24.38 24.38)"/><polygon class="cls-12" points="97.29 278.09 97.77 277.88 162.72 249.25 163.05 249.99 98.58 278.4 124.42 310.13 163.19 250.15 163.87 250.59 124.5 311.5 124.15 311.06 97.29 278.09"/><path class="cls-13" d="M137.57,225.08a1.82,1.82,0,1,1,.54,2.51A1.83,1.83,0,0,1,137.57,225.08Z" transform="translate(24.38 24.38)"/><path class="cls-14" d="M139.16,226.94a1.82,1.82,0,1,0-2.4-.93A1.83,1.83,0,0,0,139.16,226.94Z" transform="translate(24.38 24.38)"/><polygon class="cls-15" points="99.22 294.71 97.4 276.95 126.18 312.28 101.09 297.61 101.49 296.92 122.75 309.34 98.47 279.55 100.02 294.63 99.22 294.71"/><path class="cls-16" d="M76.07,274.5a1.82,1.82,0,1,1,2.49-.65A1.83,1.83,0,0,1,76.07,274.5Z" transform="translate(24.38 24.38)"/><path class="cls-17" d="M73.43,270.39a1.81,1.81,0,1,0,1.62-2A1.8,1.8,0,0,0,73.43,270.39Z" transform="translate(24.38 24.38)"/><polygon class="cls-18" points="10.89 55.74 74.41 67.7 74.26 68.49 12.75 56.91 59.15 120.11 75.12 69.93 75.89 70.18 59.43 121.86 10.89 55.74"/><path class="cls-19" d="M50.2,41.91a1.82,1.82,0,1,1-2.12,1.45A1.81,1.81,0,0,1,50.2,41.91Z" transform="translate(24.38 24.38)"/><path class="cls-20" d="M52.83,46.31a1.82,1.82,0,1,0-2.28,1.18A1.81,1.81,0,0,0,52.83,46.31Z" transform="translate(24.38 24.38)"/><polygon class="cls-21" points="57.98 123.78 75.99 67.22 82.28 82.94 81.53 83.24 76.07 69.6 60.6 118.19 81.28 85.93 81.95 86.36 57.98 123.78"/><path class="cls-22" d="M55.66,60.87a1.82,1.82,0,1,1,.55,2.51A1.81,1.81,0,0,1,55.66,60.87Z" transform="translate(24.38 24.38)"/><path class="cls-23" d="M55.81,59.3a1.81,1.81,0,1,0,1-2.36A1.81,1.81,0,0,0,55.81,59.3Z" transform="translate(24.38 24.38)"/><polygon class="cls-24" points="45.06 147.43 140.5 165.39 140.35 166.18 46.54 148.53 92.39 236.53 140.8 167.29 141.46 167.75 92.29 238.08 45.06 147.43"/><path class="cls-25" d="M115.21,142.18a1.82,1.82,0,1,1,.45,2.53A1.81,1.81,0,0,1,115.21,142.18Z" transform="translate(24.38 24.38)"/><path class="cls-26" d="M115.62,143.18a1.82,1.82,0,0,0,.67-3.57,1.82,1.82,0,1,0-.67,3.57Z" transform="translate(24.38 24.38)"/><polygon class="cls-27" points="9.44 223.02 45.79 147.08 46.16 147.79 93.07 237.82 10.71 225.41 10.82 224.61 91.62 236.79 45.82 148.88 10.17 223.37 9.44 223.02"/><path class="cls-28" d="M-13.79,202.44a1.81,1.81,0,0,1-1.53-2.06,1.82,1.82,0,0,1,2.07-1.53,1.82,1.82,0,0,1,1.52,2.07A1.81,1.81,0,0,1-13.79,202.44Z" transform="translate(24.38 24.38)"/><path class="cls-29" d="M-16.17,198a1.82,1.82,0,0,0,.85,2.43,1.81,1.81,0,0,0,2.42-.86,1.81,1.81,0,0,0-.85-2.42A1.82,1.82,0,0,0-16.17,198Z" transform="translate(24.38 24.38)"/><polygon class="cls-6" points="91.44 237.89 92.01 237.07 142.46 164.91 145.24 225.31 144.44 225.35 141.77 167.31 93.25 236.72 143.15 226.99 143.3 227.78 91.44 237.89"/><path class="cls-30" d="M118.41,201.24a1.82,1.82,0,1,1-1.43,2.13A1.81,1.81,0,0,1,118.41,201.24Z" transform="translate(24.38 24.38)"/><path class="cls-31" d="M118.64,201a1.82,1.82,0,1,0,1.73-1.9A1.82,1.82,0,0,0,118.64,201Z" transform="translate(24.38 24.38)"/><polygon class="cls-32" points="97.65 279.15 91.89 236.98 143.15 226.99 143.3 227.78 92.8 237.63 98.22 277.34 143.46 228.06 144.05 228.6 97.65 279.15"/><path class="cls-33" d="M118,202.79a1.82,1.82,0,1,1,2.68,2.46,1.82,1.82,0,0,1-2.68-2.46Z" transform="translate(24.38 24.38)"/><path class="cls-34" d="M119.11,204.81a1.82,1.82,0,1,0-2.13-1.44A1.82,1.82,0,0,0,119.11,204.81Z" transform="translate(24.38 24.38)"/><path class="cls-35" d="M-13.37,32.2l18-18.45,45.82,29-.39.62-.14.72ZM4.72,14.78-11.75,31.69,49.66,43.25Z" transform="translate(24.38 24.38)"/><path class="cls-36" d="M51.09,41.53a1.82,1.82,0,0,1-1.94,3.07,1.82,1.82,0,1,1,1.94-3.07Z" transform="translate(24.38 24.38)"/><path class="cls-37" d="M49.53,45.48a1.82,1.82,0,1,0,.67-3.57,1.82,1.82,0,1,0-.67,3.57Z" transform="translate(24.38 24.38)"/><polygon class="cls-38" points="56.52 121.45 92.91 109.82 101.2 118.53 100.61 119.08 92.67 110.74 62.06 120.53 100.36 119.69 100.38 120.49 56.52 121.45"/><path class="cls-39" d="M75.86,93.9a1.82,1.82,0,1,1-1.78,1.85A1.83,1.83,0,0,1,75.86,93.9Z" transform="translate(24.38 24.38)"/><path class="cls-40" d="M75.15,95.61A1.81,1.81,0,1,0,75.21,93,1.81,1.81,0,0,0,75.15,95.61Z" transform="translate(24.38 24.38)"/><path class="cls-14" d="M20.53,124.49,34.66,96.21h.24L76,95.31l0,.78.35.71ZM35.16,97,22.32,122.7l53.6-26.58Z" transform="translate(24.38 24.38)"/><path class="cls-40" d="M75.86,93.9a1.82,1.82,0,1,1-1.78,1.85A1.83,1.83,0,0,1,75.86,93.9Z" transform="translate(24.38 24.38)"/><path class="cls-28" d="M76.9,98.11a1.82,1.82,0,1,0-2.44-.82A1.83,1.83,0,0,0,76.9,98.11Z" transform="translate(24.38 24.38)"/><polygon class="cls-20" points="44.55 148.15 100.37 120.46 100.73 121.18 47.06 147.8 141.05 165.5 102.92 121.62 103.53 121.09 143.18 166.72 44.55 148.15"/><path class="cls-41" d="M75.28,94.85a1.82,1.82,0,1,1-.82,2.44A1.84,1.84,0,0,1,75.28,94.85Z" transform="translate(24.38 24.38)"/><path class="cls-42" d="M80.28,95.85a1.82,1.82,0,1,0-.18,2.57A1.83,1.83,0,0,0,80.28,95.85Z" transform="translate(24.38 24.38)"/><polygon class="cls-32" points="57.86 122.47 81.28 85.93 81.95 86.36 60.72 119.5 86.28 101.73 82.56 86.47 83.34 86.28 87.19 102.08 57.86 122.47"/><path class="cls-43" d="M55.66,60.87a1.82,1.82,0,1,1,.55,2.51A1.81,1.81,0,0,1,55.66,60.87Z" transform="translate(24.38 24.38)"/><path class="cls-44" d="M60.36,61.65A1.82,1.82,0,1,0,59,63.85,1.81,1.81,0,0,0,60.36,61.65Z" transform="translate(24.38 24.38)"/><polygon class="cls-14" points="56.86 122.19 85.09 102.56 85.55 103.22 61.72 119.79 92.14 110.07 87.42 103.54 88.07 103.07 93.44 110.5 56.86 122.19"/><path class="cls-45" d="M59.83,77.08a1.81,1.81,0,1,1-.45,2.52A1.81,1.81,0,0,1,59.83,77.08Z" transform="translate(24.38 24.38)"/><path class="cls-16" d="M64.9,77.94a1.82,1.82,0,1,0-.41,2.54A1.82,1.82,0,0,0,64.9,77.94Z" transform="translate(24.38 24.38)"/><polygon class="cls-46" points="0 143.17 44.78 148.27 0 183.51 0 184.53 46.82 147.69 0 142.36 0 143.17"/><polygon class="cls-47" points="0 184.53 44.69 149.36 8.89 224.16 0 218.28 0 219.24 9.22 225.35 46.91 146.59 0 183.51 0 184.53"/><path class="cls-48" d="M62.89,241.89l0-.18,4.38-27.15.65.11.65-.09,5.54,40.6Zm5-26.23-4.18,26L73,252.55Z" transform="translate(24.38 24.38)"/><path class="cls-49" d="M66.41,215a1.82,1.82,0,1,1,3.6-.49,1.82,1.82,0,0,1-3.6.49Z" transform="translate(24.38 24.38)"/><path class="cls-48" d="M69.47,215a1.82,1.82,0,1,0-2.08,1.5A1.82,1.82,0,0,0,69.47,215Z" transform="translate(24.38 24.38)"/><polygon class="cls-50" points="9.74 226.39 10.39 225.92 21.36 241.09 88.48 237.13 10.71 225.41 10.82 224.61 96.21 237.48 20.96 241.92 9.74 226.39"/><path class="cls-10" d="M-13.79,202.44a1.81,1.81,0,0,1-1.53-2.06,1.82,1.82,0,0,1,2.07-1.53,1.82,1.82,0,0,1,1.52,2.07A1.81,1.81,0,0,1-13.79,202.44Z" transform="translate(24.38 24.38)"/><path class="cls-45" d="M-12.78,200.79a1.81,1.81,0,0,0-2.54-.41,1.81,1.81,0,0,0-.41,2.53,1.81,1.81,0,0,0,2.54.41A1.82,1.82,0,0,0-12.78,200.79Z" transform="translate(24.38 24.38)"/><polygon class="cls-51" points="20.05 241.16 21.14 241.1 92.32 236.9 92.43 237.7 34.56 250.37 34.39 249.58 87.25 238.01 22.27 241.84 31.66 248.98 31.17 249.62 20.05 241.16"/><path class="cls-20" d="M10.58,227.35A1.82,1.82,0,1,1,12,225.19,1.81,1.81,0,0,1,10.58,227.35Z" transform="translate(24.38 24.38)"/><path class="cls-8" d="M5.87,226.31a1.82,1.82,0,0,0,2.2-2.89,1.82,1.82,0,1,0-2.2,2.89Z" transform="translate(24.38 24.38)"/><polygon class="cls-36" points="0 22.39 29.89 27.87 30.18 27.93 44.58 0 43.67 0 29.74 27.02 0 21.57 0 22.39"/><polygon class="cls-52" points="149.23 335.62 125.95 311.76 125.38 312.33 148.1 335.62 149.23 335.62"/><rect class="cls-52" x="124.06" y="312.54" width="0.81" height="23.09"/><path class="cls-52" d="M98.27,288.25a1.82,1.82,0,1,1,1.81,1.82A1.82,1.82,0,0,1,98.27,288.25Z" transform="translate(24.38 24.38)"/><path class="cls-53" d="M102.65,286.46a1.82,1.82,0,1,0,0,2.57A1.83,1.83,0,0,0,102.65,286.46Z" transform="translate(24.38 24.38)"/><polygon class="cls-19" points="149.23 335.62 126.25 312.07 178.03 335.62 179.97 335.62 126.2 311.16 125.9 311.82 125.38 312.33 148.1 335.62 149.23 335.62"/><path class="cls-54" d="M101,288.84a1.82,1.82,0,1,1,2.41-.9A1.83,1.83,0,0,1,101,288.84Z" transform="translate(24.38 24.38)"/><path class="cls-39" d="M102.65,286.46a1.82,1.82,0,1,0,0,2.57A1.83,1.83,0,0,0,102.65,286.46Z" transform="translate(24.38 24.38)"/><polygon class="cls-38" points="68.33 0 69.31 4.83 64.47 0 63.34 0 70.63 7.29 69.15 0 68.33 0"/><polygon class="cls-35" points="31.4 26.25 51.34 0 50.33 0 28.52 28.7 68.64 7.23 68.26 6.53 31.4 26.25"/><polygon class="cls-35" points="63.34 0 68.47 5.13 69.03 4.56 64.47 0 63.34 0"/><path class="cls-22" d="M45.59-20.88a1.82,1.82,0,0,1,0,2.57,1.82,1.82,0,0,1-2.57,0,1.82,1.82,0,0,1,0-2.57A1.82,1.82,0,0,1,45.59-20.88Z" transform="translate(24.38 24.38)"/><path class="cls-55" d="M44.85-15.85a1.82,1.82,0,0,0,.74-2.46,1.82,1.82,0,0,0-2.46-.75,1.83,1.83,0,0,0-.74,2.46A1.82,1.82,0,0,0,44.85-15.85Z" transform="translate(24.38 24.38)"/><path class="cls-4" d="M4.18,15.16l1-12.31.19-.11L43.88-17.85l.27.49.34.44ZM6,3.35l-.84,10L41.87-15.86Z" transform="translate(24.38 24.38)"/><path class="cls-30" d="M43.13-19.06a1.82,1.82,0,0,1,2.46.75,1.82,1.82,0,0,1-.74,2.46,1.82,1.82,0,0,1-2.46-.75A1.83,1.83,0,0,1,43.13-19.06Z" transform="translate(24.38 24.38)"/><path class="cls-50" d="M45.3-15.76a1.81,1.81,0,0,0,.29-2.55A1.8,1.8,0,0,0,43-18.6,1.82,1.82,0,0,0,42.75-16,1.82,1.82,0,0,0,45.3-15.76Z" transform="translate(24.38 24.38)"/><polygon class="cls-56" points="28.34 38.68 68.37 6.83 68.87 7.46 29.73 38.6 75.55 67.63 69.74 7.82 70.54 7.74 76.51 69.19 28.34 38.68"/><path class="cls-28" d="M43-18.6a1.8,1.8,0,0,1,2.55.29,1.81,1.81,0,0,1-.29,2.55A1.82,1.82,0,0,1,42.75-16,1.82,1.82,0,0,1,43-18.6Z" transform="translate(24.38 24.38)"/><path class="cls-57" d="M47.58-16.68a1.82,1.82,0,0,0-2-1.63,1.8,1.8,0,0,0-1.63,2,1.81,1.81,0,0,0,2,1.63A1.82,1.82,0,0,0,47.58-16.68Z" transform="translate(24.38 24.38)"/><polygon class="cls-31" points="123.52 311.52 163.19 250.15 163.87 250.59 125.4 310.1 183.92 291.94 164.82 250.66 165.55 250.32 185.04 292.44 184.6 292.57 123.52 311.52"/><path class="cls-52" d="M137.57,225.08a1.82,1.82,0,1,1,.54,2.51A1.83,1.83,0,0,1,137.57,225.08Z" transform="translate(24.38 24.38)"/><path class="cls-19" d="M142.5,225.43a1.82,1.82,0,1,0-.89,2.41A1.82,1.82,0,0,0,142.5,225.43Z" transform="translate(24.38 24.38)"/><polygon class="cls-33" points="195.47 335.62 185.28 293.77 184.5 293.96 194.64 335.62 195.47 335.62"/><polygon class="cls-33" points="179.97 335.62 125.59 310.88 182.95 293.08 182.71 292.31 123.33 310.74 178.03 335.62 179.97 335.62"/><path class="cls-58" d="M157.83,266.61a1.82,1.82,0,1,1-1.2,2.28A1.82,1.82,0,0,1,157.83,266.61Z" transform="translate(24.38 24.38)"/><path class="cls-42" d="M162.3,269.15a1.82,1.82,0,1,0-1.34,2.19A1.82,1.82,0,0,0,162.3,269.15Z" transform="translate(24.38 24.38)"/><polygon class="cls-33" points="116.05 335.62 124.26 312.57 123.5 312.3 115.19 335.62 116.05 335.62"/><polygon class="cls-33" points="94.82 335.62 123.38 312.21 122.87 311.59 93.55 335.62 94.82 335.62"/><path class="cls-59" d="M97.53,286.18a1.82,1.82,0,0,1,2.3,2.81,1.82,1.82,0,1,1-2.3-2.81Z" transform="translate(24.38 24.38)"/><path class="cls-30" d="M101.18,288.75a1.82,1.82,0,1,0-2.32,1.1A1.81,1.81,0,0,0,101.18,288.75Z" transform="translate(24.38 24.38)"/><polygon class="cls-30" points="116.05 335.62 124.06 313.14 124.06 335.62 124.87 335.62 124.86 312.54 124.16 312.54 123.5 312.3 115.19 335.62 116.05 335.62"/><path class="cls-43" d="M98.27,288.25a1.82,1.82,0,1,1,1.81,1.82A1.82,1.82,0,0,1,98.27,288.25Z" transform="translate(24.38 24.38)"/><path class="cls-44" d="M101.18,288.75a1.82,1.82,0,1,0-2.32,1.1A1.81,1.81,0,0,0,101.18,288.75Z" transform="translate(24.38 24.38)"/><polygon class="cls-56" points="84.54 321.69 98.58 297.68 99.28 298.08 86.22 320.42 123.42 310.67 101.09 297.61 101.49 296.92 125.5 310.95 84.54 321.69"/><path class="cls-25" d="M76.07,274.5a1.82,1.82,0,1,1,2.49-.65A1.83,1.83,0,0,1,76.07,274.5Z" transform="translate(24.38 24.38)"/><path class="cls-22" d="M76.07,274.5a1.82,1.82,0,1,0-2.48.65A1.82,1.82,0,0,0,76.07,274.5Z" transform="translate(24.38 24.38)"/><polygon class="cls-12" points="50.06 335.62 84.99 321.64 85.3 335.62 86.1 335.62 85.77 320.46 47.9 335.62 50.06 335.62"/><polygon class="cls-31" points="86.1 335.62 85.79 321.36 122.78 311.67 93.55 335.62 94.82 335.62 123.38 312.21 122.89 311.61 122.69 310.86 84.97 320.74 85.3 335.62 86.1 335.62"/><path class="cls-16" d="M97.53,286.18a1.82,1.82,0,0,1,2.3,2.81,1.82,1.82,0,1,1-2.3-2.81Z" transform="translate(24.38 24.38)"/><path class="cls-21" d="M98.79,288.65a1.81,1.81,0,1,0-2.22-1.3A1.81,1.81,0,0,0,98.79,288.65Z" transform="translate(24.38 24.38)"/><polygon class="cls-60" points="0 82.17 11.45 58.06 10.72 57.71 0 80.29 0 82.17"/><polygon class="cls-60" points="0 60.45 10.29 57.23 10.05 56.46 0 59.61 0 60.45"/><path class="cls-21" d="M-15,32.81A1.81,1.81,0,0,1-12.56,32a1.81,1.81,0,0,1,.86,2.42,1.82,1.82,0,0,1-2.42.86A1.82,1.82,0,0,1-15,32.81Z" transform="translate(24.38 24.38)"/><path class="cls-47" d="M-13.75,34.22A1.81,1.81,0,0,0-12.56,32a1.81,1.81,0,0,0-2.27-1.19A1.81,1.81,0,0,0-16,33,1.81,1.81,0,0,0-13.75,34.22Z" transform="translate(24.38 24.38)"/><polygon class="cls-46" points="0 22.39 28.75 27.66 0 43.05 0 43.96 31.17 27.29 0 21.57 0 22.39"/><polygon class="cls-47" points="0 46.67 29.41 38.96 30.22 29.23 29.42 29.16 28.66 38.32 0 45.83 0 46.67"/><polygon class="cls-47" points="0 43.96 28.63 28.64 28.25 27.93 0 43.05 0 43.96"/><path class="cls-34" d="M3.62,4.76a1.82,1.82,0,1,1,1.66,2A1.81,1.81,0,0,1,3.62,4.76Z" transform="translate(24.38 24.38)"/><path class="cls-4" d="M4.84,5.56a1.82,1.82,0,1,0-2.46-.75A1.82,1.82,0,0,0,4.84,5.56Z" transform="translate(24.38 24.38)"/><polygon class="cls-50" points="0 51.88 0 52.73 11.69 56.71 11.93 56.79 28.12 40.16 27.54 39.6 11.71 55.86 0 51.88"/><polygon class="cls-50" points="0 46.67 27.47 39.47 27.26 38.69 0 45.84 0 46.67"/><path class="cls-28" d="M2.09,14.3a1.81,1.81,0,1,1,0,2.57A1.81,1.81,0,0,1,2.09,14.3Z" transform="translate(24.38 24.38)"/><path class="cls-11" d="M3.36,16.48a1.81,1.81,0,1,0-2.22-1.3A1.81,1.81,0,0,0,3.36,16.48Z" transform="translate(24.38 24.38)"/><polygon class="cls-54" points="0 52.73 10.53 56.31 0 59.61 0 60.45 13.12 56.34 0 51.88 0 52.73"/><polygon class="cls-14" points="34.06 251.58 34.48 250.89 64.81 269.35 91.27 237.95 34.56 250.37 34.39 249.58 93.42 236.66 64.98 270.4 34.06 251.58"/><path class="cls-61" d="M10.58,227.35A1.82,1.82,0,1,1,12,225.19,1.81,1.81,0,0,1,10.58,227.35Z" transform="translate(24.38 24.38)"/><path class="cls-7" d="M10.91,225.36a1.82,1.82,0,1,0,.61,2.49A1.82,1.82,0,0,0,10.91,225.36Z" transform="translate(24.38 24.38)"/><polygon class="cls-60" points="31.14 265.34 32.45 249.66 33 250 66.56 270.42 33.09 267.63 33.15 266.83 63.23 269.33 33.14 251.02 31.94 265.4 31.14 265.34"/><path class="cls-43" d="M8.68,244.67a1.82,1.82,0,1,1,2-1.66A1.82,1.82,0,0,1,8.68,244.67Z" transform="translate(24.38 24.38)"/><path class="cls-42" d="M5.36,240.75a1.82,1.82,0,1,0,2-1.66A1.82,1.82,0,0,0,5.36,240.75Z" transform="translate(24.38 24.38)"/><polygon class="cls-62" points="63.89 270.45 90.92 238.36 91.54 238.88 65.91 269.3 87.35 265.8 91.67 238.94 92.47 239.07 88.05 266.5 87.76 266.55 63.89 270.45"/><path class="cls-63" d="M65.88,214.43a1.82,1.82,0,1,1,1.51,2.08A1.83,1.83,0,0,1,65.88,214.43Z" transform="translate(24.38 24.38)"/><path class="cls-7" d="M68.19,215.48a1.82,1.82,0,0,0-2.78-2.34,1.82,1.82,0,1,0,2.78,2.34Z" transform="translate(24.38 24.38)"/><polygon class="cls-47" points="38.84 335.62 31.85 267.53 64.34 270.23 39.94 335.62 40.8 335.62 65.28 270.02 65.46 269.52 31.43 266.69 30.95 266.65 38.04 335.62 38.84 335.62"/><polygon class="cls-9" points="62.92 269.79 85.93 266.03 86.06 266.82 66.87 269.96 96.82 277.55 88.5 267.73 89.12 267.21 99.06 278.94 62.92 269.79"/><path class="cls-6" d="M63.11,244.33a1.81,1.81,0,1,1,2.56.22A1.81,1.81,0,0,1,63.11,244.33Z" transform="translate(24.38 24.38)"/><path class="cls-57" d="M61.82,243.86a1.82,1.82,0,1,0-2.09-1.5A1.82,1.82,0,0,0,61.82,243.86Z" transform="translate(24.38 24.38)"/><polygon class="cls-58" points="63.08 269 96.36 277.43 96.16 278.21 66.72 270.75 99.3 295.51 97.71 280 98.51 279.92 100.3 297.27 63.08 269"/><path class="cls-52" d="M71.94,255.86a1.81,1.81,0,1,1,2,1.62A1.8,1.8,0,0,1,71.94,255.86Z" transform="translate(24.38 24.38)"/><path class="cls-36" d="M71.35,255.18A1.82,1.82,0,1,0,70,253,1.82,1.82,0,0,0,71.35,255.18Z" transform="translate(24.38 24.38)"/><polygon class="cls-45" points="63.99 268.68 98.67 295.03 98.18 295.67 65.81 271.08 85.45 320.14 98.58 297.68 99.28 298.08 85.31 321.97 63.99 268.68"/><path class="cls-17" d="M72.94,272.66a1.82,1.82,0,1,1,.65,2.49A1.82,1.82,0,0,1,72.94,272.66Z" transform="translate(24.38 24.38)"/><path class="cls-16" d="M72.88,272.36a1.81,1.81,0,1,0-.35-2.54A1.81,1.81,0,0,0,72.88,272.36Z" transform="translate(24.38 24.38)"/><polygon class="cls-40" points="40.8 335.62 64.91 270.99 84.86 320.83 47.89 335.62 50.06 335.62 85.9 321.28 64.89 268.76 39.94 335.62 40.8 335.62"/><polygon class="cls-4" points="133.45 116.81 139.22 46.88 148.11 55.97 147.32 56.75 140.13 49.41 135.09 110.51 148.24 60.24 149.32 60.53 134.55 116.99 133.45 116.81"/><path class="cls-38" d="M121.94,35.49a2.52,2.52,0,1,1,1.79,3.08A2.52,2.52,0,0,1,121.94,35.49Z" transform="translate(24.38 24.38)"/><path class="cls-61" d="M121.45,33.66a2.52,2.52,0,1,0,0-3.57A2.51,2.51,0,0,0,121.45,33.66Z" transform="translate(24.38 24.38)"/><polygon class="cls-5" points="119.21 292.18 119.27 291.05 125.45 165.79 126.57 165.84 120.43 289.97 220.26 220.99 127.89 165.15 128.47 164.19 222.31 220.93 221.6 221.42 119.21 292.18"/><path class="cls-6" d="M99.11,141.44a2.52,2.52,0,1,1,2.39,2.64A2.52,2.52,0,0,1,99.11,141.44Z" transform="translate(24.38 24.38)"/><path class="cls-7" d="M105.21,138.2a2.52,2.52,0,1,0,.85,3.46A2.52,2.52,0,0,0,105.21,138.2Z" transform="translate(24.38 24.38)"/><path class="cls-8" d="M97.9,266.57l-.27-.91-.54-.78,100.46-69.42-3,43.27Zm98.37-68.87-97.7,67.51,94.9-27.34Z" transform="translate(24.38 24.38)"/><path class="cls-36" d="M98.56,268.42a2.52,2.52,0,1,1,1.72-3.12A2.53,2.53,0,0,1,98.56,268.42Z" transform="translate(24.38 24.38)"/><path class="cls-28" d="M96.08,263.19a2.52,2.52,0,1,0,3.51.64A2.53,2.53,0,0,0,96.08,263.19Z" transform="translate(24.38 24.38)"/><polygon class="cls-9" points="416.67 335.62 418.21 335.62 422.71 330.9 421.9 330.13 416.67 335.62"/><polygon class="cls-9" points="379.02 335.62 387.63 311.96 421.56 328.25 422.05 327.25 387 310.42 377.83 335.62 379.02 335.62"/><path class="cls-10" d="M396,304.49a2.52,2.52,0,1,1,.09,3.56A2.52,2.52,0,0,1,396,304.49Z" transform="translate(24.38 24.38)"/><path class="cls-11" d="M396.22,305.59a2.52,2.52,0,1,0-1.18-3.36A2.52,2.52,0,0,0,396.22,305.59Z" transform="translate(24.38 24.38)"/><polygon class="cls-12" points="423.28 335.62 424.08 331.24 422.98 331.04 422.15 335.62 423.28 335.62"/><polygon class="cls-12" points="418.21 335.62 422.71 330.9 421.9 330.13 416.67 335.62 418.21 335.62"/><path class="cls-13" d="M396.65,306.43a2.52,2.52,0,1,1,2,2.93A2.52,2.52,0,0,1,396.65,306.43Z" transform="translate(24.38 24.38)"/><path class="cls-14" d="M399.67,308a2.52,2.52,0,1,0-3.56.08A2.51,2.51,0,0,0,399.67,308Z" transform="translate(24.38 24.38)"/><polygon class="cls-62" points="0 2.64 3.26 0 1.49 0 0 1.21 0 2.64"/><polygon class="cls-62" points="0 93.57 34.46 0 33.27 0 0 90.34 0 93.57"/><polygon class="cls-11" points="0 93.57 34.46 0 33.27 0 0 90.34 0 93.57"/><polygon class="cls-11" points="0 104.93 0 106.14 140.7 48.32 87.86 0 86.21 0 138.65 47.96 0 104.93"/><polygon class="cls-49" points="108.64 0 135.22 15.47 135.78 14.5 110.86 0 108.64 0"/><polygon class="cls-49" points="137.78 0 137.12 13.78 138.24 13.83 138.9 0 137.78 0"/><path class="cls-45" d="M112.28-11.63a2.52,2.52,0,0,1,.91,3.44,2.53,2.53,0,0,1-3.45.91,2.53,2.53,0,0,1-.91-3.44A2.53,2.53,0,0,1,112.28-11.63Z" transform="translate(24.38 24.38)"/><path class="cls-58" d="M110.79-10.82a2.52,2.52,0,0,0,2.4,2.63,2.5,2.5,0,0,0,2.63-2.39,2.52,2.52,0,0,0-2.39-2.64A2.53,2.53,0,0,0,110.79-10.82Z" transform="translate(24.38 24.38)"/><polygon class="cls-51" points="135.22 15.47 135.78 14.5 110.86 0 108.64 0 135.22 15.47"/><polygon class="cls-51" points="137.17 18.61 139.02 46.79 87.86 0 86.21 0 140.32 49.49 138.28 18.54 137.17 18.61"/><path class="cls-52" d="M112.28-11.63a2.52,2.52,0,0,1,.91,3.44,2.53,2.53,0,0,1-3.45.91,2.53,2.53,0,0,1-.91-3.44A2.53,2.53,0,0,1,112.28-11.63Z" transform="translate(24.38 24.38)"/><path class="cls-24" d="M115.87-5.84a2.53,2.53,0,0,0-2.68-2.35,2.52,2.52,0,0,0-2.35,2.68,2.52,2.52,0,0,0,2.68,2.35A2.52,2.52,0,0,0,115.87-5.84Z" transform="translate(24.38 24.38)"/><polygon class="cls-18" points="124.63 163.17 212.3 144.7 212.53 145.79 127.63 163.68 220.64 219.91 214.4 147.18 215.51 147.08 221.94 222 124.63 163.17"/><path class="cls-19" d="M187.39,118.43a2.51,2.51,0,1,1-1.94,3A2.51,2.51,0,0,1,187.39,118.43Z" transform="translate(24.38 24.38)"/><path class="cls-20" d="M193.1,122.66a2.52,2.52,0,1,0-2.3,2.73A2.52,2.52,0,0,0,193.1,122.66Z" transform="translate(24.38 24.38)"/><polygon class="cls-21" points="221.09 225.23 214.06 143.25 230.48 160.03 229.68 160.81 215.44 146.25 221.48 216.68 230.79 164.38 231.89 164.58 221.09 225.23"/><path class="cls-22" d="M204.46,139.79a2.51,2.51,0,1,1,2,2.92A2.52,2.52,0,0,1,204.46,139.79Z" transform="translate(24.38 24.38)"/><path class="cls-23" d="M203.82,137.71a2.52,2.52,0,1,0,0-3.56A2.52,2.52,0,0,0,203.82,137.71Z" transform="translate(24.38 24.38)"/><polygon class="cls-24" points="329.69 335.62 351.34 237.12 350.25 236.88 328.55 335.62 329.69 335.62"/><polygon class="cls-24" points="306.43 335.62 219.61 262.99 349.08 235.7 348.85 234.61 217.13 262.37 304.69 335.62 306.43 335.62"/><path class="cls-25" d="M323.93,212.2a2.52,2.52,0,1,1,1.92,3A2.52,2.52,0,0,1,323.93,212.2Z" transform="translate(24.38 24.38)"/><path class="cls-26" d="M325,213.27a2.52,2.52,0,1,0-3-2A2.52,2.52,0,0,0,325,213.27Z" transform="translate(24.38 24.38)"/><polygon class="cls-27" points="215.09 335.62 218.87 263.82 304.69 335.62 306.43 335.62 218.73 262.25 217.88 261.54 213.98 335.62 215.09 335.62"/><polygon class="cls-6" points="349.52 335.62 351.54 335.62 385.63 312.98 385.01 312.05 349.52 335.62"/><polygon class="cls-6" points="329.69 335.62 351.5 236.38 385.79 309.26 386.8 308.79 351.12 232.94 328.55 335.62 329.69 335.62"/><path class="cls-30" d="M359.44,286.11a2.52,2.52,0,1,1-.7,3.49A2.52,2.52,0,0,1,359.44,286.11Z" transform="translate(24.38 24.38)"/><path class="cls-31" d="M359.58,285.61a2.52,2.52,0,1,0,1.21-3.35A2.51,2.51,0,0,0,359.58,285.61Z" transform="translate(24.38 24.38)"/><polygon class="cls-32" points="379.02 335.62 387.02 313.63 385.97 313.25 377.83 335.62 379.02 335.62"/><polygon class="cls-32" points="351.54 335.62 385.63 312.98 385.01 312.05 349.52 335.62 351.54 335.62"/><path class="cls-33" d="M359.71,288.32a2.52,2.52,0,1,1,1.5,3.23A2.51,2.51,0,0,1,359.71,288.32Z" transform="translate(24.38 24.38)"/><path class="cls-34" d="M362.23,290.31a2.52,2.52,0,1,0-3.49-.71A2.53,2.53,0,0,0,362.23,290.31Z" transform="translate(24.38 24.38)"/><path class="cls-35" d="M100.85,139.81,114,106.63l74.08,12.79-.17,1,.21,1Zm13.88-31.92-12.08,30.4,84.76-17.86Z" transform="translate(24.38 24.38)"/><path class="cls-36" d="M188.32,117.46a2.52,2.52,0,1,1-2.91,2.06A2.52,2.52,0,0,1,188.32,117.46Z" transform="translate(24.38 24.38)"/><path class="cls-37" d="M188.43,123.35a2.51,2.51,0,1,0-3-1.94A2.51,2.51,0,0,0,188.43,123.35Z" transform="translate(24.38 24.38)"/><polygon class="cls-38" points="217.98 223.03 258.38 188.78 273.62 195.51 273.17 196.54 258.56 190.09 224.59 218.89 273.17 197.45 273.62 198.47 217.98 223.03"/><path class="cls-39" d="M247.88,171.33a2.52,2.52,0,1,1-1.28,3.32A2.51,2.51,0,0,1,247.88,171.33Z" transform="translate(24.38 24.38)"/><path class="cls-40" d="M247.88,173.9a2.52,2.52,0,1,0-1.28-3.32A2.51,2.51,0,0,0,247.88,173.9Z" transform="translate(24.38 24.38)"/><path class="cls-14" d="M193.32,239.92l3.05-43.71.31-.14,52.11-23,.44,1,.82.71Zm4.12-43-2.77,39.73,54.47-62.54Z" transform="translate(24.38 24.38)"/><path class="cls-40" d="M247.88,171.33a2.52,2.52,0,1,1-1.28,3.32A2.51,2.51,0,0,1,247.88,171.33Z" transform="translate(24.38 24.38)"/><path class="cls-28" d="M251.45,176.17a2.52,2.52,0,1,0-3.55.24A2.53,2.53,0,0,0,251.45,176.17Z" transform="translate(24.38 24.38)"/><polygon class="cls-20" points="216.86 263.57 273.59 198.43 274.43 199.16 219.89 261.79 349.62 234.45 277.48 198.56 277.97 197.56 352.99 234.88 216.86 263.57"/><path class="cls-41" d="M247.65,172.86a2.52,2.52,0,1,1,.25,3.55A2.52,2.52,0,0,1,247.65,172.86Z" transform="translate(24.38 24.38)"/><path class="cls-42" d="M254.58,171.48a2.52,2.52,0,1,0,1.13,3.38A2.53,2.53,0,0,0,254.58,171.48Z" transform="translate(24.38 24.38)"/><polygon class="cls-32" points="220.25 223.62 230.79 164.38 231.89 164.58 222.33 218.3 245.6 181.96 232.72 164.39 233.62 163.73 246.95 181.91 220.25 223.62"/><path class="cls-43" d="M204.46,139.79a2.51,2.51,0,1,1,2,2.92A2.52,2.52,0,0,1,204.46,139.79Z" transform="translate(24.38 24.38)"/><path class="cls-44" d="M210.9,138.29a2.52,2.52,0,1,0-.55,3.52A2.52,2.52,0,0,0,210.9,138.29Z" transform="translate(24.38 24.38)"/><polygon class="cls-14" points="218.81 223.79 244.51 183.65 245.46 184.25 223.76 218.13 257.52 189.51 248.02 183.66 248.6 182.71 259.42 189.37 218.81 223.79"/><path class="cls-45" d="M218.42,158.32a2.52,2.52,0,1,1,.76,3.48A2.52,2.52,0,0,1,218.42,158.32Z" transform="translate(24.38 24.38)"/><path class="cls-16" d="M225.36,156.73a2.52,2.52,0,1,0,.83,3.47A2.54,2.54,0,0,0,225.36,156.73Z" transform="translate(24.38 24.38)"/><polygon class="cls-46" points="142.11 335.62 120.61 291.43 217.22 263.59 176.91 335.62 178.19 335.62 219.52 261.77 119.03 290.72 140.87 335.62 142.11 335.62"/><polygon class="cls-45" points="128.79 335.62 121.14 295.07 140.87 335.62 142.11 335.62 118.5 287.08 127.66 335.62 128.79 335.62"/><polygon class="cls-47" points="178.19 335.62 217.69 265.04 213.98 335.62 215.09 335.62 219.06 260.32 176.91 335.62 178.19 335.62"/><polygon class="cls-28" points="139.19 49.39 137.17 18.61 138.28 18.54 140.15 46.9 151.35 35.94 138.53 18.45 139.43 17.79 152.82 36.06 139.19 49.39"/><path class="cls-35" d="M110.84-5.51a2.52,2.52,0,0,1,2.35-2.68,2.53,2.53,0,0,1,2.68,2.35,2.52,2.52,0,0,1-2.35,2.68A2.52,2.52,0,0,1,110.84-5.51Z" transform="translate(24.38 24.38)"/><path class="cls-38" d="M116.71-7.65a2.52,2.52,0,0,0-3.52-.54,2.52,2.52,0,0,0-.55,3.52,2.51,2.51,0,0,0,3.52.54A2.51,2.51,0,0,0,116.71-7.65Z" transform="translate(24.38 24.38)"/><polygon class="cls-64" points="138.88 48.13 149.99 37.27 150.77 38.07 140.46 48.15 148.97 56.85 151.24 38.3 152.35 38.44 149.8 59.29 138.88 48.13"/><path class="cls-59" d="M124.15,11.58a2.52,2.52,0,1,1,0,3.56A2.52,2.52,0,0,1,124.15,11.58Z" transform="translate(24.38 24.38)"/><path class="cls-61" d="M129.9,14.42a2.52,2.52,0,1,0-2.8,2.2A2.51,2.51,0,0,0,129.9,14.42Z" transform="translate(24.38 24.38)"/><polygon class="cls-4" points="0 106.14 136.34 50.11 25.73 139.47 0 113.17 0 114.77 25.64 140.98 143 46.17 0 104.93 0 106.14"/><polygon class="cls-36" points="23.51 141.27 137.46 49.21 138.16 50.08 27.86 139.18 133.49 116.39 138.92 50.48 140.03 50.57 134.53 117.31 134.13 117.4 23.51 141.27"/><path class="cls-65" d="M112.58,26.07a2.52,2.52,0,1,1,2.3,2.71A2.52,2.52,0,0,1,112.58,26.07Z" transform="translate(24.38 24.38)"/><path class="cls-66" d="M114.92,27.3a2.52,2.52,0,1,0-3.54-.37A2.51,2.51,0,0,0,114.92,27.3Z" transform="translate(24.38 24.38)"/><polygon class="cls-38" points="148.78 58.42 151.24 38.3 152.35 38.44 149.99 57.72 172.34 66.94 152.96 38.29 153.89 37.66 175.34 69.39 148.78 58.42"/><path class="cls-36" d="M124.9,13.81a2.52,2.52,0,1,1,2.2,2.81A2.52,2.52,0,0,1,124.9,13.81Z" transform="translate(24.38 24.38)"/><path class="cls-29" d="M131.2,12.29a2.52,2.52,0,1,0-.67,3.5A2.51,2.51,0,0,0,131.2,12.29Z" transform="translate(24.38 24.38)"/><polygon class="cls-35" points="132.82 119.18 149.01 57.31 171.84 66.74 171.41 67.77 149.76 58.83 135.19 114.52 171.89 69.66 172.75 70.37 132.82 119.18"/><path class="cls-22" d="M148.09,40.5a2.52,2.52,0,1,1-3.29,1.36A2.52,2.52,0,0,1,148.09,40.5Z" transform="translate(24.38 24.38)"/><path class="cls-55" d="M149.81,47.33a2.52,2.52,0,1,0-3.54.35A2.51,2.51,0,0,0,149.81,47.33Z" transform="translate(24.38 24.38)"/><path class="cls-4" d="M114.24,108.66,109,92.35l.2-.23,38.31-46.84.61.5.67.37Zm-4-16.07,4.27,13.27L146,48.9Z" transform="translate(24.38 24.38)"/><path class="cls-30" d="M145.92,44.14a2.52,2.52,0,1,1,.35,3.54A2.51,2.51,0,0,1,145.92,44.14Z" transform="translate(24.38 24.38)"/><path class="cls-50" d="M150.44,47.21a2.52,2.52,0,1,0-3.42,1A2.5,2.5,0,0,0,150.44,47.21Z" transform="translate(24.38 24.38)"/><polygon class="cls-56" points="137.89 132.05 172.19 69.99 173.17 70.53 139.63 131.22 213.72 144 174.47 70.54 175.46 70.01 215.78 145.49 137.89 132.05"/><path class="cls-28" d="M146,44.77a2.52,2.52,0,1,1,1,3.42A2.51,2.51,0,0,1,146,44.77Z" transform="translate(24.38 24.38)"/><path class="cls-57" d="M152.87,44.82a2.52,2.52,0,1,0-1,3.41A2.51,2.51,0,0,0,152.87,44.82Z" transform="translate(24.38 24.38)"/><polygon class="cls-31" points="423.28 335.62 424.08 331.24 422.98 331.04 422.15 335.62 423.28 335.62"/><polygon class="cls-31" points="432.21 335.62 426.1 330 425.34 330.81 430.57 335.62 432.21 335.62"/><path class="cls-52" d="M396.65,306.43a2.52,2.52,0,1,1,2,2.93A2.52,2.52,0,0,1,396.65,306.43Z" transform="translate(24.38 24.38)"/><path class="cls-19" d="M403.14,304.26a2.52,2.52,0,1,0,.15,3.56A2.53,2.53,0,0,0,403.14,304.26Z" transform="translate(24.38 24.38)"/><polygon class="cls-16" points="0 2.64 3.26 0 1.49 0 0 1.21 0 2.64"/><polygon class="cls-67" points="62.3 232.16 43.81 198.94 92.58 191.79 65.74 232.29 64.81 231.67 90.27 193.25 45.57 199.81 63.28 231.61 62.3 232.16"/><path class="cls-21" d="M43.07,208.89a2.52,2.52,0,1,1-.71-3.49A2.53,2.53,0,0,1,43.07,208.89Z" transform="translate(24.38 24.38)"/><path class="cls-52" d="M36.15,208.62a2.52,2.52,0,1,0,1-3.42A2.53,2.53,0,0,0,36.15,208.62Z" transform="translate(24.38 24.38)"/><polygon class="cls-60" points="120.22 294.45 90.79 192.33 91.07 192.09 123.94 164.54 124.66 165.39 92.06 192.71 119.43 287.7 125.45 165.79 126.57 165.84 120.22 294.45"/><path class="cls-21" d="M99.11,141.44a2.52,2.52,0,1,1,2.39,2.64A2.52,2.52,0,0,1,99.11,141.44Z" transform="translate(24.38 24.38)"/><path class="cls-47" d="M101.44,142.6a2.52,2.52,0,1,0-3.55-.31A2.51,2.51,0,0,0,101.44,142.6Z" transform="translate(24.38 24.38)"/><polygon class="cls-37" points="98.4 284.31 63.28 233.98 63.49 233.66 91.83 190.9 100.56 283.51 99.45 283.62 91.02 194.15 64.63 233.97 99.32 283.67 98.4 284.31"/><path class="cls-53" d="M78.12,258.83a2.52,2.52,0,1,1-2.74-2.27A2.51,2.51,0,0,1,78.12,258.83Z" transform="translate(24.38 24.38)"/><path class="cls-60" d="M72.35,261a2.52,2.52,0,1,0,.62-3.51A2.51,2.51,0,0,0,72.35,261Z" transform="translate(24.38 24.38)"/><polygon class="cls-50" points="102.4 287.09 102.69 286.01 119.01 290.29 92.54 198.41 100.56 283.51 99.45 283.62 90.87 192.57 91.96 192.37 120.63 291.86 102.4 287.09"/><path class="cls-36" d="M77.65,264.64a2.52,2.52,0,1,1,3.07-1.8A2.51,2.51,0,0,1,77.65,264.64Z" transform="translate(24.38 24.38)"/><path class="cls-23" d="M73.11,259.3a2.52,2.52,0,1,0,2.27-2.74A2.52,2.52,0,0,0,73.11,259.3Z" transform="translate(24.38 24.38)"/><polygon class="cls-8" points="43.43 197.27 24.8 139.3 95.39 165.38 46.98 198.49 46.35 197.57 92.97 165.68 26.57 141.15 44.49 196.93 43.43 197.27"/><path class="cls-12" d="M23.81,175.66a2.52,2.52,0,1,1,.66-3.5A2.52,2.52,0,0,1,23.81,175.66Z" transform="translate(24.38 24.38)"/><path class="cls-20" d="M17.14,173.37a2.52,2.52,0,1,0,1.63-3.16A2.51,2.51,0,0,0,17.14,173.37Z" transform="translate(24.38 24.38)"/><polygon class="cls-46" points="27.74 141.58 28.12 140.53 94 164.87 132.56 117.73 28.14 140.27 27.91 139.17 135.45 115.97 94.36 166.2 27.74 141.58"/><path class="cls-37" d="M4.3,117.78a2.52,2.52,0,1,1,1.93-3A2.52,2.52,0,0,1,4.3,117.78Z" transform="translate(24.38 24.38)"/><path class="cls-4" d="M4.54,114.36A2.52,2.52,0,1,0,6,117.59,2.51,2.51,0,0,0,4.54,114.36Z" transform="translate(24.38 24.38)"/><path class="cls-20" d="M22.76,175.2l-.16-1.1-.63-.91L70.48,140l-2.92,28.61-.43.07Zm46.36-32.91L22.62,174.1l43.92-6.45Z" transform="translate(24.38 24.38)"/><path class="cls-23" d="M23.17,177.13a2.52,2.52,0,1,1,2.12-2.86A2.52,2.52,0,0,1,23.17,177.13Z" transform="translate(24.38 24.38)"/><path class="cls-39" d="M21,171.5a2.52,2.52,0,1,0,3.5.66A2.51,2.51,0,0,0,21,171.5Z" transform="translate(24.38 24.38)"/><polygon class="cls-47" points="90.75 168.84 132.06 118.35 132.92 119.05 97.6 162.23 138.11 131.43 134.21 119.3 135.27 118.96 139.41 131.84 90.75 168.84"/><path class="cls-34" d="M108,95.64a2.52,2.52,0,1,1,3.17,1.63A2.53,2.53,0,0,1,108,95.64Z" transform="translate(24.38 24.38)"/><path class="cls-4" d="M110,96a2.52,2.52,0,1,0-3.54.35A2.52,2.52,0,0,0,110,96Z" transform="translate(24.38 24.38)"/><polygon class="cls-50" points="92.36 166.21 136.52 132.64 137.19 133.53 95.99 164.85 125.74 162.89 137.36 133.65 138.39 134.07 126.52 163.96 126.17 163.99 92.36 166.21"/><path class="cls-28" d="M111.11,108.67a2.52,2.52,0,1,1,1.41,3.27A2.52,2.52,0,0,1,111.11,108.67Z" transform="translate(24.38 24.38)"/><path class="cls-11" d="M113.9,110.79a2.52,2.52,0,1,0-3.53-.48A2.52,2.52,0,0,0,113.9,110.79Z" transform="translate(24.38 24.38)"/><polygon class="cls-54" points="91.11 190.08 93.67 165.01 127.8 162.76 93.62 191.41 92.9 190.56 124.46 164.1 94.69 166.06 92.23 190.2 91.11 190.08"/><path class="cls-49" d="M70.6,168.46a2.52,2.52,0,1,1,.31-3.55A2.52,2.52,0,0,1,70.6,168.46Z" transform="translate(24.38 24.38)"/><path class="cls-68" d="M64.8,165.38a2.52,2.52,0,1,0,2.76-2.25A2.52,2.52,0,0,0,64.8,165.38Z" transform="translate(24.38 24.38)"/></g><circle class="cls-69" cx="69.38" cy="166.77" r="54.25" transform="translate(-84.5 220.36) rotate(-76.72)"/><circle class="cls-70" cx="67.51" cy="214.83" r="26.98" transform="translate(-132.7 255.55) rotate(-76.72)"/></g></g></svg>