<svg id="Layer_1" data-name="Layer 1" xmlns="http://www.w3.org/2000/svg" viewBox="0 0 593.94 641.52"><defs><style>.cls-1{fill:#fff;}</style></defs><path class="cls-1" d="M464.53,330.81S246.31,416.13,243,654c0,0,3.28,193.61,221.5,206.73,0,0-213.3-111.57-110.75-265,0,0,13.94,14,23.79,123.88l-39.38-18S374.29,823,549.84,849.28l17.7-3.13c9.66-1.7,10.92-15,1.76-18.52a392.69,392.69,0,0,1-70.81-35.29c-82.28-52.61-118.86-154.7-86.7-246.92a148,148,0,0,1,12.54-27.57s64.81-93.52,30.35-100.08c0,0-42.38,4.23-92.41,56.57a285.32,285.32,0,0,0-70.89,131.05l-15.54,65.05s-35.63-39,23-154.23l9.85,11.48s54.14-123.05,182.12-187l-6.56-18S597.43,275,605.63,283.23c0,0-11.49,34.45-68.91,118.13,0,0-26.25,47.58-23,73.83,0,0,57.42-14.77,141.1,0,0,0-9.84-27.89,32.82-80.39,0,0,65.62-68.91,73.83-103.37,0,0,50.86,1.64,75.47-23V219.24s-37.74,27.89-93.52,27.89c0,0-169-14.77-288.77,68.91Z" transform="translate(-243.03 -219.24)"/><path class="cls-1" d="M519.36,782.54A28.1,28.1,0,0,1,507,779.81c-15.42-7.45-22.42-29-19.73-60.58,2.56-30,13.45-66.15,30.67-101.78s38.76-66.64,60.68-87.28c23.09-21.76,44.3-29.64,59.71-22.2s22.42,29,19.73,60.58c-2.55,30-13.44,66.14-30.66,101.78S588.63,737,566.72,757.61C549.3,774,533,782.54,519.36,782.54Zm106.55-267.3c-10.84,0-25,7.71-40.44,22.2-21,19.83-41.83,49.79-58.53,84.36h0c-16.7,34.56-27.25,69.47-29.71,98.28-2.28,26.8,2.87,45.29,14.12,50.72a18.23,18.23,0,0,0,8,1.72c24.35,0,66.31-38.8,99-106.54,16.7-34.56,27.25-69.47,29.71-98.28,2.28-26.8-2.86-45.29-14.12-50.72A18.26,18.26,0,0,0,625.91,515.24ZM572.67,704.67c-39.58,0-76.87-5.92-105-16.66-29.64-11.33-46-27-46-44.12s16.32-32.79,46-44.12c28.12-10.75,65.41-16.66,105-16.66s76.86,5.91,105,16.66c29.64,11.33,46,27,46,44.12s-16.32,32.79-46,44.12C649.53,698.75,612.25,704.67,572.67,704.67Zm0-111.56c-84.32,0-140.95,26.25-140.95,50.78s56.63,50.78,140.95,50.78,140.94-26.26,140.94-50.78S657,593.11,572.67,593.11ZM626,782.54c-13.6,0-29.94-8.51-47.36-24.93C556.7,737,535.15,706,517.94,670.33s-28.11-71.78-30.67-101.78c-2.69-31.62,4.31-53.13,19.73-60.58s36.62.44,59.72,22.2c21.91,20.64,43.46,51.64,60.68,87.28s28.11,71.78,30.66,101.78c2.69,31.62-4.31,53.13-19.73,60.58A28.06,28.06,0,0,1,626,782.54ZM519.36,515.26a18.2,18.2,0,0,0-8,1.72c-11.25,5.43-16.4,23.92-14.12,50.72,2.46,28.81,13,63.72,29.71,98.28s37.49,64.53,58.53,84.35c19.58,18.45,37.26,25.91,48.51,20.47s16.4-23.92,14.12-50.72c-2.46-28.81-13-63.72-29.71-98.28C585.67,554.06,543.71,515.26,519.36,515.26Z" transform="translate(-243.03 -219.24)"/><circle class="cls-1" cx="329.64" cy="424.65" r="26.1"/></svg>